<svg width="24" height="24" viewBox="0 0 24 24" fill="none" xmlns="http://www.w3.org/2000/svg">
<path d="M14.6797 2.134L12.4891 1L10.2986 2.134L7.85994 2.50412L6.75481 4.70912L5 6.44162L5.40162 8.875L5 11.3084L6.75481 13.0409L7.85994 15.2459L10.2986 15.616L12.4891 16.75L14.6797 15.616L17.1183 15.2459L18.2234 13.0409L19.9782 11.3084L19.5766 8.875L19.9782 6.44162L18.2234 4.70912L17.1183 2.50412L14.6797 2.134ZM16.2494 3.69981L17.1472 5.49137L18.5726 6.89837L18.2471 8.875L18.5726 10.8516L17.1472 12.2586L16.2494 14.0502L14.2676 14.3507L12.4891 15.2721L10.7107 14.3507L8.72881 14.0502L7.83106 12.2586L6.40569 10.8516L6.7325 8.875L6.40437 6.89837L7.83106 5.49137L8.72881 3.69981L10.7107 3.39925L12.4891 2.47787L14.2689 3.39925L16.2494 3.69981Z" fill="#15313F"/>
<path d="M7.23914 16.4795V21.9999L12.4891 20.6874L17.7391 21.9999V16.4795L15.0905 16.8811L12.4891 18.2277L9.88776 16.8811L7.23914 16.4795Z" fill="#15313F"/>
</svg>
