<svg width="50" height="50" viewBox="0 0 50 50" fill="none" xmlns="http://www.w3.org/2000/svg">
<circle cx="25" cy="25" r="24.25" fill="white" stroke="#15313F" stroke-width="1.5"/>
<path fill-rule="evenodd" clip-rule="evenodd" d="M31.354 28.3541C31.3076 28.4006 31.2524 28.4376 31.1917 28.4628C31.1309 28.488 31.0658 28.501 31 28.501C30.9343 28.501 30.8691 28.488 30.8084 28.4628C30.7476 28.4376 30.6925 28.4006 30.646 28.3541L25 22.7071L19.354 28.3541C19.3075 28.4006 19.2523 28.4374 19.1916 28.4626C19.1309 28.4878 19.0658 28.5007 19 28.5007C18.9343 28.5007 18.8692 28.4878 18.8084 28.4626C18.7477 28.4374 18.6925 28.4006 18.646 28.3541C18.5995 28.3076 18.5627 28.2524 18.5375 28.1917C18.5123 28.1309 18.4994 28.0658 18.4994 28.0001C18.4994 27.9343 18.5123 27.8692 18.5375 27.8085C18.5627 27.7478 18.5995 27.6926 18.646 27.6461L24.646 21.6461C24.6925 21.5995 24.7476 21.5626 24.8084 21.5374C24.8691 21.5122 24.9343 21.4992 25 21.4992C25.0658 21.4992 25.1309 21.5122 25.1917 21.5374C25.2524 21.5626 25.3076 21.5995 25.354 21.6461L31.354 27.6461C31.4006 27.6925 31.4375 27.7477 31.4627 27.8084C31.4879 27.8692 31.5009 27.9343 31.5009 28.0001C31.5009 28.0659 31.4879 28.131 31.4627 28.1917C31.4375 28.2525 31.4006 28.3076 31.354 28.3541Z" fill="#15313F" stroke="black" stroke-width="1.5"/>
</svg>
