<svg width="16" height="16" viewBox="0 0 16 16" fill="none" xmlns="http://www.w3.org/2000/svg">
<path d="M0.5 9.90002C0.632608 9.90002 0.759785 9.9527 0.853553 10.0465C0.947322 10.1402 1 10.2674 1 10.4V12.9C1 13.1652 1.10536 13.4196 1.29289 13.6071C1.48043 13.7947 1.73478 13.9 2 13.9H14C14.2652 13.9 14.5196 13.7947 14.7071 13.6071C14.8946 13.4196 15 13.1652 15 12.9V10.4C15 10.2674 15.0527 10.1402 15.1464 10.0465C15.2402 9.9527 15.3674 9.90002 15.5 9.90002C15.6326 9.90002 15.7598 9.9527 15.8536 10.0465C15.9473 10.1402 16 10.2674 16 10.4V12.9C16 13.4305 15.7893 13.9392 15.4142 14.3142C15.0391 14.6893 14.5304 14.9 14 14.9H2C1.46957 14.9 0.960859 14.6893 0.585786 14.3142C0.210714 13.9392 0 13.4305 0 12.9V10.4C0 10.2674 0.0526784 10.1402 0.146447 10.0465C0.240215 9.9527 0.367392 9.90002 0.5 9.90002Z" fill="#15313F"/>
<path d="M7.646 1.14598C7.69245 1.09942 7.74762 1.06247 7.80837 1.03727C7.86911 1.01206 7.93423 0.999084 8 0.999084C8.06577 0.999084 8.13089 1.01206 8.19163 1.03727C8.25238 1.06247 8.30755 1.09942 8.354 1.14598L11.354 4.14598C11.4479 4.23986 11.5006 4.3672 11.5006 4.49998C11.5006 4.63275 11.4479 4.76009 11.354 4.85398C11.2601 4.94787 11.1328 5.00061 11 5.00061C10.8672 5.00061 10.7399 4.94787 10.646 4.85398L8.5 2.70698V11.5C8.5 11.6326 8.44732 11.7598 8.35355 11.8535C8.25979 11.9473 8.13261 12 8 12C7.86739 12 7.74022 11.9473 7.64645 11.8535C7.55268 11.7598 7.5 11.6326 7.5 11.5V2.70698L5.354 4.85398C5.30751 4.90047 5.25232 4.93734 5.19158 4.9625C5.13084 4.98766 5.06574 5.00061 5 5.00061C4.93426 5.00061 4.86916 4.98766 4.80842 4.9625C4.74768 4.93734 4.69249 4.90047 4.646 4.85398C4.59951 4.80749 4.56264 4.7523 4.53748 4.69156C4.51232 4.63082 4.49937 4.56572 4.49937 4.49998C4.49937 4.43423 4.51232 4.36913 4.53748 4.30839C4.56264 4.24766 4.59951 4.19247 4.646 4.14598L7.646 1.14598Z" fill="#15313F"/>
</svg>
