<svg width="56" height="48" viewBox="0 0 56 48" fill="none" xmlns="http://www.w3.org/2000/svg">
<path d="M11.087 23.9914L24.238 42.8327L53.5618 0.600714C54.1384 -0.227564 55.0512 -0.19541 55.6013 0.673033C56.151 1.54087 56.1297 2.91557 55.5532 3.74315L25.2388 47.3977C24.6835 48.1957 23.8108 48.1988 23.253 47.4057L9.106 27.1482C8.52688 26.3248 8.50046 24.9501 9.0472 24.078C9.59436 23.2059 10.5072 23.1663 11.0862 23.9897L11.087 23.9914ZM0.45236 27.1499C-0.127189 26.3266 -0.153185 24.9519 0.393553 24.0798C0.940287 23.2077 1.85352 23.1681 2.43258 23.9914L16.5796 44.249C17.1587 45.0723 17.1851 46.447 16.638 47.3191C16.0912 48.1912 15.1784 48.2308 14.5989 47.4075L0.45236 27.1499ZM25.9449 33.9516C25.3683 34.7799 24.4556 34.7471 23.9054 33.8793C23.3557 33.0115 23.377 31.6368 23.9536 30.8092L44.9068 0.601658C45.4829 -0.22662 46.3961 -0.194466 46.9458 0.673977C47.496 1.54181 47.4747 2.91652 46.8981 3.7441L25.9449 33.9516Z" fill="#3DCDE3"/>
</svg>
