<svg width="48" height="48" viewBox="0 0 48 48" fill="none" xmlns="http://www.w3.org/2000/svg">
<path d="M34.2613 13.1152L29.2646 8.34386L13.5829 23.3195L13.6064 28.0684L18.5792 28.0912L34.2613 13.1152ZM37.4616 13.1152L19.5132 30.2564L11.3549 30.2192L11.3162 22.4285L29.2647 5.28728L37.4616 13.1152ZM39.2295 8.37211C39.0802 8.51467 39.3401 8.26646 39.672 7.94987L40.8598 6.81521C40.7533 6.91688 40.7677 6.79314 40.631 6.368C40.3858 5.6071 39.7834 4.69963 38.931 3.88592C38.0789 3.07183 37.1287 2.49654 36.3319 2.26247C35.8867 2.13185 35.7571 2.14561 35.8636 2.04393L34.2332 3.60087L39.2295 8.37211ZM40.5313 2.35757C42.7959 4.51982 43.6578 7.19975 42.4602 8.34349L39.2295 11.4287L31.0325 3.60079L34.2632 0.515532C35.4609 -0.628206 38.2672 0.194966 40.5313 2.35757Z" fill="#3DCDE3"/>
<path d="M45.3334 25.0807V45.4702C45.3334 45.4608 45.341 45.4536 45.3509 45.4536H2.64914C2.65897 45.4536 2.66655 45.4608 2.66655 45.4702V4.69111C2.66655 4.70049 2.65896 4.70774 2.64914 4.70774H24C24.7362 4.70774 25.3335 4.13774 25.3335 3.43473C25.3335 2.73129 24.7362 2.16129 24 2.16129H2.64914C1.18663 2.16129 0 3.29405 0 4.69115V45.4703C0 46.8669 1.18617 48.0001 2.64914 48.0001H45.3509C46.8134 48.0001 48 46.8674 48 45.4703V25.0807C48 24.3777 47.4031 23.8073 46.6665 23.8073C45.9304 23.8073 45.3335 24.3777 45.3335 25.0807L45.3334 25.0807Z" fill="#3DCDE3"/>
</svg>
