<svg width="52" height="52" viewBox="0 0 52 52" fill="none" xmlns="http://www.w3.org/2000/svg">
<path d="M50 2L2 50" stroke="#3DCDE3" stroke-width="3" stroke-linecap="round"/>
<path fill-rule="evenodd" clip-rule="evenodd" d="M33.6154 6.38447V10.5384H37.7537C38.9091 10.5384 39.8462 11.4827 39.8462 12.6152V43.7688C39.8462 44.9159 38.9136 45.8456 37.7537 45.8456H14.9386C13.7832 45.8456 12.8461 44.9013 12.8461 43.7688V39.6149H8.70784C7.55249 39.6149 6.61539 38.6706 6.61539 37.5381V6.38447C6.61539 5.23739 7.54795 4.30768 8.70784 4.30768H31.523C32.6783 4.30768 33.6154 5.25199 33.6154 6.38447ZM31.5383 7.20294C31.5383 6.77145 31.1635 6.38447 30.7007 6.38447H9.53046C9.07428 6.38447 8.69285 6.75094 8.69285 7.20294V36.166C8.69285 36.5975 9.06767 36.9845 9.53046 36.9845H12.8465V12.6152C12.8465 11.4682 13.779 10.5385 14.9389 10.5385H31.5384L31.5383 7.20294ZM15.6321 12.6152C15.2465 12.6152 14.9235 12.9386 14.9235 13.3374V43.0464C14.9235 43.4466 15.2406 43.7685 15.6321 43.7685H37.0605C37.4461 43.7685 37.7691 43.4452 37.7691 43.0464V13.3374C37.7691 12.9372 37.452 12.6152 37.0605 12.6152H15.6321Z" fill="#3DCDE3"/>
</svg>
