<svg width="48" height="48" viewBox="0 0 48 48" fill="none" xmlns="http://www.w3.org/2000/svg">
<path d="M0 24C0 10.7446 10.7426 0 24 0C37.2554 0 48 10.7426 48 24C48 37.2554 37.2574 48 24 48C10.7446 48 0 37.2574 0 24ZM2.3999 24C2.3999 35.9316 12.0694 45.6003 24.0002 45.6003C35.9318 45.6003 45.6005 35.9308 45.6005 24C45.6005 12.0684 35.931 2.39969 24.0002 2.39969C12.0686 2.39969 2.3999 12.0692 2.3999 24Z" fill="#3DCDE3"/>
<path fill-rule="evenodd" clip-rule="evenodd" d="M25.2003 22.7997H33.6058C34.2655 22.7997 34.8003 23.3566 34.8003 23.9999C34.8003 24.6624 34.2848 25.2 33.6058 25.2H22.8005V8.40837C22.8005 7.741 23.3574 7.2002 24.0006 7.2002C24.6632 7.2002 25.2008 7.75909 25.2008 8.40837L25.2003 22.7997Z" fill="#3DCDE3"/>
</svg>
