<svg width="24" height="24" viewBox="0 0 24 24" fill="none" xmlns="http://www.w3.org/2000/svg">
<path d="M12.5 2.5C13.2956 2.5 14.0587 2.81607 14.6213 3.37868C15.1839 3.94129 15.5 4.70435 15.5 5.5V8.5H9.5V5.5C9.5 4.70435 9.81607 3.94129 10.3787 3.37868C10.9413 2.81607 11.7044 2.5 12.5 2.5ZM17 8.5V5.5C17 4.30653 16.5259 3.16193 15.682 2.31802C14.8381 1.47411 13.6935 1 12.5 1C11.3065 1 10.1619 1.47411 9.31802 2.31802C8.47411 3.16193 8 4.30653 8 5.5V8.5C7.20435 8.5 6.44129 8.81607 5.87868 9.37868C5.31607 9.94129 5 10.7044 5 11.5V19C5 19.7957 5.31607 20.5587 5.87868 21.1213C6.44129 21.6839 7.20435 22 8 22H17C17.7956 22 18.5587 21.6839 19.1213 21.1213C19.6839 20.5587 20 19.7957 20 19V11.5C20 10.7044 19.6839 9.94129 19.1213 9.37868C18.5587 8.81607 17.7956 8.5 17 8.5ZM8 10H17C17.3978 10 17.7794 10.158 18.0607 10.4393C18.342 10.7206 18.5 11.1022 18.5 11.5V19C18.5 19.3978 18.342 19.7794 18.0607 20.0607C17.7794 20.342 17.3978 20.5 17 20.5H8C7.60218 20.5 7.22064 20.342 6.93934 20.0607C6.65804 19.7794 6.5 19.3978 6.5 19V11.5C6.5 11.1022 6.65804 10.7206 6.93934 10.4393C7.22064 10.158 7.60218 10 8 10Z" fill="#15313F"/>
</svg>
