<svg version="1.2" xmlns="http://www.w3.org/2000/svg" viewBox="0 0 16 16" width="16" height="16">
	<title>yin-yang-svg</title>
	<style>
		.s0 { fill: #279cdc } 
	</style>
	<path id="Layer" class="s0" d="m9.2 4.5c0 0.3-0.2 0.6-0.4 0.8-0.2 0.2-0.5 0.4-0.8 0.4-0.3 0-0.6-0.2-0.8-0.4-0.2-0.2-0.4-0.5-0.4-0.8 0-0.3 0.2-0.6 0.4-0.8 0.2-0.2 0.5-0.4 0.8-0.4 0.3 0 0.6 0.2 0.8 0.4 0.2 0.2 0.4 0.5 0.4 0.8z"/>
	<path id="Layer" fill-rule="evenodd" class="s0" d="m13.7 2.3c1.5 1.5 2.3 3.6 2.3 5.7 0 2.1-0.8 4.2-2.3 5.7-1.5 1.5-3.6 2.3-5.7 2.3-2.1 0-4.2-0.8-5.7-2.3-1.5-1.5-2.3-3.6-2.3-5.7 0-2.1 0.8-4.2 2.3-5.7 1.5-1.5 3.6-2.3 5.7-2.3 2.1 0 4.2 0.8 5.7 2.3zm-12.2 8.4q0.6 1.3 1.6 2.2 0.9 1 2.2 1.6 1.3 0.5 2.7 0.5c-0.9 0-1.8-0.4-2.5-1-0.6-0.7-1-1.6-1-2.5 0-0.9 0.4-1.8 1-2.5 0.7-0.6 1.6-1 2.5-1 0.9 0 1.8-0.4 2.5-1 0.6-0.7 1-1.6 1-2.5 0-0.9-0.4-1.8-1-2.5-0.7-0.6-1.6-1-2.5-1q-1.4 0-2.7 0.5-1.3 0.6-2.2 1.6-1 0.9-1.6 2.2-0.5 1.3-0.5 2.7 0 1.4 0.5 2.7zm7.3 1.6c0.2-0.2 0.4-0.5 0.4-0.8 0-0.3-0.2-0.6-0.4-0.8-0.2-0.2-0.5-0.4-0.8-0.4-0.3 0-0.6 0.2-0.8 0.4-0.2 0.2-0.4 0.5-0.4 0.8 0 0.3 0.2 0.6 0.4 0.8 0.2 0.2 0.5 0.4 0.8 0.4 0.3 0 0.6-0.2 0.8-0.4z"/>
</svg>